<?xml version="1.0" encoding="UTF-8" standalone="no"?>
<!DOCTYPE svg PUBLIC "-//W3C//DTD SVG 1.1//EN"
 "http://www.w3.org/Graphics/SVG/1.1/DTD/svg11.dtd">
<!-- Generated by graphviz version 2.36.0 (20140111.2315)
 -->
<!-- Title: models_diagram Pages: 1 -->
<svg width="1008pt" height="304pt"
 viewBox="0.00 0.00 1008.00 304.00" xmlns="http://www.w3.org/2000/svg" xmlns:xlink="http://www.w3.org/1999/xlink">
<g id="graph0" class="graph" transform="scale(1 1) rotate(0) translate(4 300)">
<title>models_diagram</title>
<polygon fill="none" stroke="none" points="-4,4 -4,-300 1004,-300 1004,4 -4,4"/>
<!-- _diagram_info -->
<g id="node1" class="node"><title>_diagram_info</title>
<text text-anchor="start" x="8" y="-251.6" font-family="Times,serif" font-size="13.00">Models diagram</text>
<text text-anchor="start" x="8" y="-237.6" font-family="Times,serif" font-size="13.00">Date: Oct 27 2016 &#45; 21:46</text>
<text text-anchor="start" x="8" y="-223.6" font-family="Times,serif" font-size="13.00">Migration version: 20161028015203</text>
<text text-anchor="start" x="8" y="-209.6" font-family="Times,serif" font-size="13.00">Generated by RailRoady 1.5.2</text>
<text text-anchor="start" x="8" y="-195.6" font-family="Times,serif" font-size="13.00">http://railroady.prestonlee.com</text>
</g>
<!-- User -->
<g id="node2" class="node"><title>User</title>
<path fill="none" stroke="black" d="M244,-174C244,-174 464,-174 464,-174 470,-174 476,-180 476,-186 476,-186 476,-268 476,-268 476,-274 470,-280 464,-280 464,-280 244,-280 244,-280 238,-280 232,-274 232,-268 232,-268 232,-186 232,-186 232,-180 238,-174 244,-174"/>
<text text-anchor="middle" x="354" y="-264.8" font-family="Times,serif" font-size="14.00">User</text>
<polyline fill="none" stroke="black" points="232,-257 476,-257 "/>
<text text-anchor="start" x="240" y="-241.8" font-family="Times,serif" font-size="14.00">id :integer</text>
<text text-anchor="start" x="240" y="-226.8" font-family="Times,serif" font-size="14.00">name :character varying</text>
<text text-anchor="start" x="240" y="-211.8" font-family="Times,serif" font-size="14.00">email :character varying</text>
<text text-anchor="start" x="240" y="-196.8" font-family="Times,serif" font-size="14.00">created_at :timestamp without time zone</text>
<text text-anchor="start" x="240" y="-181.8" font-family="Times,serif" font-size="14.00">updated_at :timestamp without time zone</text>
</g>
<!-- Work -->
<g id="node4" class="node"><title>Work</title>
<path fill="none" stroke="black" d="M375,-0.5C375,-0.5 595,-0.5 595,-0.5 601,-0.5 607,-6.5 607,-12.5 607,-12.5 607,-109.5 607,-109.5 607,-115.5 601,-121.5 595,-121.5 595,-121.5 375,-121.5 375,-121.5 369,-121.5 363,-115.5 363,-109.5 363,-109.5 363,-12.5 363,-12.5 363,-6.5 369,-0.5 375,-0.5"/>
<text text-anchor="middle" x="485" y="-106.3" font-family="Times,serif" font-size="14.00">Work</text>
<polyline fill="none" stroke="black" points="363,-98.5 607,-98.5 "/>
<text text-anchor="start" x="371" y="-83.3" font-family="Times,serif" font-size="14.00">id :integer</text>
<text text-anchor="start" x="371" y="-68.3" font-family="Times,serif" font-size="14.00">description :text</text>
<text text-anchor="start" x="371" y="-53.3" font-family="Times,serif" font-size="14.00">user_id :integer</text>
<text text-anchor="start" x="371" y="-38.3" font-family="Times,serif" font-size="14.00">inventory_id :integer</text>
<text text-anchor="start" x="371" y="-23.3" font-family="Times,serif" font-size="14.00">created_at :timestamp without time zone</text>
<text text-anchor="start" x="371" y="-8.3" font-family="Times,serif" font-size="14.00">updated_at :timestamp without time zone</text>
</g>
<!-- User&#45;&gt;Work -->
<g id="edge1" class="edge"><title>User&#45;&gt;Work</title>
<path fill="none" stroke="#86cbe9" d="M400.844,-167.355C410.597,-155.146 420.951,-142.184 430.938,-129.68"/>
<ellipse fill="none" stroke="#86cbe9" cx="398.306" cy="-170.533" rx="4.00002" ry="4.00002"/>
<polygon fill="#86cbe9" stroke="#86cbe9" points="431.198,-129.355 440.955,-124.351 434.318,-125.449 437.439,-121.542 437.439,-121.542 437.439,-121.542 434.318,-125.449 433.923,-118.734 431.198,-129.355 431.198,-129.355"/>
</g>
<!-- Category -->
<g id="node3" class="node"><title>Category</title>
<path fill="none" stroke="black" d="M768,-181.5C768,-181.5 988,-181.5 988,-181.5 994,-181.5 1000,-187.5 1000,-193.5 1000,-193.5 1000,-260.5 1000,-260.5 1000,-266.5 994,-272.5 988,-272.5 988,-272.5 768,-272.5 768,-272.5 762,-272.5 756,-266.5 756,-260.5 756,-260.5 756,-193.5 756,-193.5 756,-187.5 762,-181.5 768,-181.5"/>
<text text-anchor="middle" x="878" y="-257.3" font-family="Times,serif" font-size="14.00">Category</text>
<polyline fill="none" stroke="black" points="756,-249.5 1000,-249.5 "/>
<text text-anchor="start" x="764" y="-234.3" font-family="Times,serif" font-size="14.00">id :integer</text>
<text text-anchor="start" x="764" y="-219.3" font-family="Times,serif" font-size="14.00">name :character varying</text>
<text text-anchor="start" x="764" y="-204.3" font-family="Times,serif" font-size="14.00">created_at :timestamp without time zone</text>
<text text-anchor="start" x="764" y="-189.3" font-family="Times,serif" font-size="14.00">updated_at :timestamp without time zone</text>
</g>
<!-- Inventory -->
<g id="node5" class="node"><title>Inventory</title>
<path fill="none" stroke="black" d="M506,-159C506,-159 726,-159 726,-159 732,-159 738,-165 738,-171 738,-171 738,-283 738,-283 738,-289 732,-295 726,-295 726,-295 506,-295 506,-295 500,-295 494,-289 494,-283 494,-283 494,-171 494,-171 494,-165 500,-159 506,-159"/>
<text text-anchor="middle" x="616" y="-279.8" font-family="Times,serif" font-size="14.00">Inventory</text>
<polyline fill="none" stroke="black" points="494,-272 738,-272 "/>
<text text-anchor="start" x="502" y="-256.8" font-family="Times,serif" font-size="14.00">id :integer</text>
<text text-anchor="start" x="502" y="-241.8" font-family="Times,serif" font-size="14.00">serial :character varying</text>
<text text-anchor="start" x="502" y="-226.8" font-family="Times,serif" font-size="14.00">size :integer</text>
<text text-anchor="start" x="502" y="-211.8" font-family="Times,serif" font-size="14.00">description :text</text>
<text text-anchor="start" x="502" y="-196.8" font-family="Times,serif" font-size="14.00">category_id :integer</text>
<text text-anchor="start" x="502" y="-181.8" font-family="Times,serif" font-size="14.00">created_at :timestamp without time zone</text>
<text text-anchor="start" x="502" y="-166.8" font-family="Times,serif" font-size="14.00">updated_at :timestamp without time zone</text>
</g>
<!-- Inventory&#45;&gt;Work -->
<g id="edge2" class="edge"><title>Inventory&#45;&gt;Work</title>
<path fill="none" stroke="#97a78b" d="M557.247,-152.447C550.829,-144.412 544.323,-136.267 537.98,-128.326"/>
<ellipse fill="none" stroke="#97a78b" cx="559.843" cy="-155.696" rx="4.00002" ry="4.00002"/>
<ellipse fill="#97a78b" stroke="#97a78b" cx="535.192" cy="-124.836" rx="4.00002" ry="4.00002"/>
</g>
</g>
</svg>
