<?xml version="1.0" encoding="UTF-8" standalone="no"?>
<!DOCTYPE svg PUBLIC "-//W3C//DTD SVG 1.1//EN"
 "http://www.w3.org/Graphics/SVG/1.1/DTD/svg11.dtd">
<!-- Generated by graphviz version 2.36.0 (20140111.2315)
 -->
<!-- Title: models_diagram Pages: 1 -->
<svg width="505pt" height="158pt"
 viewBox="0.00 0.00 505.00 158.00" xmlns="http://www.w3.org/2000/svg" xmlns:xlink="http://www.w3.org/1999/xlink">
<g id="graph0" class="graph" transform="scale(1 1) rotate(0) translate(4 154)">
<title>models_diagram</title>
<polygon fill="none" stroke="none" points="-4,4 -4,-154 501,-154 501,4 -4,4"/>
<!-- _diagram_info -->
<g id="node1" class="node"><title>_diagram_info</title>
<text text-anchor="start" x="8" y="-135.6" font-family="Times,serif" font-size="13.00">Models diagram</text>
<text text-anchor="start" x="8" y="-121.6" font-family="Times,serif" font-size="13.00">Date: Oct 27 2016 &#45; 21:46</text>
<text text-anchor="start" x="8" y="-107.6" font-family="Times,serif" font-size="13.00">Migration version: 20161028015203</text>
<text text-anchor="start" x="8" y="-93.6" font-family="Times,serif" font-size="13.00">Generated by RailRoady 1.5.2</text>
<text text-anchor="start" x="8" y="-79.6" font-family="Times,serif" font-size="13.00">http://railroady.prestonlee.com</text>
</g>
<!-- User -->
<g id="node2" class="node"><title>User</title>
<ellipse fill="none" stroke="black" cx="259" cy="-111" rx="26.949" ry="18"/>
<text text-anchor="middle" x="259" y="-107.3" font-family="Times,serif" font-size="14.00">User</text>
</g>
<!-- Work -->
<g id="node4" class="node"><title>Work</title>
<ellipse fill="none" stroke="black" cx="304" cy="-18" rx="31.2965" ry="18"/>
<text text-anchor="middle" x="304" y="-14.3" font-family="Times,serif" font-size="14.00">Work</text>
</g>
<!-- User&#45;&gt;Work -->
<g id="edge1" class="edge"><title>User&#45;&gt;Work</title>
<path fill="none" stroke="#91a677" d="M270.715,-86.3102C277.076,-73.4462 284.944,-57.5355 291.433,-44.4135"/>
<ellipse fill="none" stroke="#91a677" cx="268.818" cy="-90.1455" rx="4.00002" ry="4.00002"/>
<polygon fill="#91a677" stroke="#91a677" points="291.44,-44.3988 299.907,-37.4297 293.656,-39.9169 295.873,-35.4349 295.873,-35.4349 295.873,-35.4349 293.656,-39.9169 291.839,-33.4402 291.44,-44.3988 291.44,-44.3988"/>
</g>
<!-- Category -->
<g id="node3" class="node"><title>Category</title>
<ellipse fill="none" stroke="black" cx="455" cy="-111" rx="42.3456" ry="18"/>
<text text-anchor="middle" x="455" y="-107.3" font-family="Times,serif" font-size="14.00">Category</text>
</g>
<!-- Inventory -->
<g id="node5" class="node"><title>Inventory</title>
<ellipse fill="none" stroke="black" cx="349" cy="-111" rx="44.271" ry="18"/>
<text text-anchor="middle" x="349" y="-107.3" font-family="Times,serif" font-size="14.00">Inventory</text>
</g>
<!-- Inventory&#45;&gt;Work -->
<g id="edge2" class="edge"><title>Inventory&#45;&gt;Work</title>
<path fill="none" stroke="#72f841" d="M337.095,-85.9252C330.532,-72.654 322.411,-56.2315 315.856,-42.9759"/>
<ellipse fill="none" stroke="#72f841" cx="338.973" cy="-89.7236" rx="4.00002" ry="4.00002"/>
<ellipse fill="#72f841" stroke="#72f841" cx="313.974" cy="-39.1705" rx="4.00002" ry="4.00002"/>
</g>
</g>
</svg>
